<svg width="330" height="327" viewBox="0 0 330 327" fill="none" xmlns="http://www.w3.org/2000/svg">
<mask id="path-1-inside-1_322_146" fill="white">
<path fill-rule="evenodd" clip-rule="evenodd" d="M45 0C20.1472 0 0 20.1472 0 45V257.384C0 280.955 18.131 300.293 41.2035 302.225L66 326.384L90.6336 302.384H284.99C309.843 302.384 330 282.237 330 257.384V45C330 20.1472 309.853 0 285 0H45Z"/>
</mask>
<path fill-rule="evenodd" clip-rule="evenodd" d="M45 0C20.1472 0 0 20.1472 0 45V257.384C0 280.955 18.131 300.293 41.2035 302.225L66 326.384L90.6336 302.384H284.99C309.843 302.384 330 282.237 330 257.384V45C330 20.1472 309.853 0 285 0H45Z" fill="#191A23"/>
<path d="M41.2035 302.225L41.9014 301.509L41.6444 301.259L41.287 301.229L41.2035 302.225ZM66 326.384L65.3022 327.1L66 327.78L66.6978 327.1L66 326.384ZM90.6336 302.384V301.384H90.227L89.9358 301.668L90.6336 302.384ZM1 45C1 20.6995 20.6995 1 45 1V-1C19.5949 -1 -1 19.5949 -1 45H1ZM1 257.384V45H-1V257.384H1ZM41.287 301.229C18.728 299.34 1 280.43 1 257.384H-1C-1 281.479 17.5341 301.247 41.1201 303.222L41.287 301.229ZM66.6978 325.668L41.9014 301.509L40.5057 302.941L65.3022 327.1L66.6978 325.668ZM89.9358 301.668L65.3022 325.668L66.6978 327.1L91.3315 303.1L89.9358 301.668ZM284.99 301.384H90.6336V303.384H284.99V301.384ZM329 257.384C329 281.684 309.291 301.384 284.99 301.384V303.384C310.395 303.384 331 282.789 331 257.384H329ZM329 45V257.384H331V45H329ZM285 1C309.301 1 329 20.6995 329 45H331C331 19.5949 310.405 -1 285 -1V1ZM45 1H285V-1H45V1Z" fill="#B9FF66" mask="url(#path-1-inside-1_322_146)"/>
</svg>
