<svg width="430" height="310" viewBox="0 0 430 310" fill="none" xmlns="http://www.w3.org/2000/svg">
<g clip-path="url(#clip0_343_699)">
<path d="M221.387 260.526L231.793 257.46L228.756 267.896L231.793 278.302L221.387 275.266L210.951 278.302L214.017 267.896L210.951 257.46L221.387 260.526Z" fill="black" stroke="white" stroke-miterlimit="10"/>
</g>
<g clip-path="url(#clip1_343_699)">
<path d="M109.21 207.977L128.157 218.3L109.21 228.706L98.8457 247.612L88.481 228.706L69.5343 218.3L88.481 207.977L98.8457 188.989L109.21 207.977Z" fill="black" stroke="white" stroke-miterlimit="10"/>
</g>
<path d="M373.669 234.26C372.559 236.273 370.482 237.747 367.446 238.668C364.407 239.59 360.451 239.941 355.671 239.735C346.112 239.323 333.369 236.686 318.318 232.08C288.225 222.869 249.015 205.815 207.826 183.096C166.638 160.377 131.297 136.309 107.453 115.768C95.5284 105.496 86.5004 96.1228 81.0525 88.2577C78.328 84.3242 76.5154 80.7912 75.6738 77.7292C74.8329 74.6698 74.9722 72.1261 76.0824 70.1133C77.1926 68.1006 79.2698 66.6258 82.3063 65.7051C85.3451 64.7836 89.3004 64.432 94.0808 64.6382C103.64 65.0506 116.383 67.687 131.434 72.2934C161.526 81.5039 200.737 98.5579 241.925 121.277C283.114 143.996 318.455 168.065 342.299 188.605C354.223 198.878 363.251 208.25 368.699 216.116C371.424 220.049 373.236 223.582 374.078 226.644C374.919 229.703 374.78 232.247 373.669 234.26Z" stroke="black"/>
<path d="M361.492 256.336C360.381 258.348 358.304 259.823 355.268 260.744C352.229 261.665 348.274 262.017 343.493 261.811C333.935 261.398 321.191 258.762 306.14 254.156C276.048 244.945 236.837 227.891 195.649 205.172C154.46 182.453 119.119 158.384 95.2755 137.844C83.3506 127.571 74.3226 118.199 68.8748 110.333C66.1503 106.4 64.3377 102.867 63.4961 99.8049C62.6551 96.7454 62.7944 94.2017 63.9047 92.189C65.0149 90.1763 67.0921 88.7015 70.1285 87.7807C73.1674 86.8592 77.1226 86.5077 81.9031 86.7139C91.4618 87.1263 104.206 89.7626 119.256 94.3691C149.349 103.58 188.559 120.634 229.748 143.353C270.936 166.072 306.278 190.14 330.121 210.68C342.046 220.953 351.074 230.326 356.522 238.191C359.246 242.125 361.059 245.658 361.9 248.72C362.741 251.779 362.602 254.323 361.492 256.336Z" stroke="black"/>
<path d="M349.316 278.411C348.206 280.424 346.128 281.898 343.092 282.819C340.053 283.741 336.098 284.092 331.318 283.886C321.759 283.474 309.015 280.837 293.965 276.231C263.872 267.02 224.661 249.966 183.473 227.247C142.285 204.528 106.943 180.46 83.0997 159.919C71.1748 149.646 62.1469 140.274 56.699 132.409C53.9745 128.475 52.1619 124.942 51.3203 121.88C50.4793 118.821 50.6187 116.277 51.7289 114.264C52.8391 112.251 54.9163 110.777 57.9527 109.856C60.9916 108.934 64.9469 108.583 69.7273 108.789C79.2861 109.201 92.0298 111.838 107.08 116.444C137.173 125.655 176.384 142.709 217.572 165.428C258.76 188.147 294.102 212.215 317.945 232.756C329.87 243.029 338.898 252.401 344.346 260.266C347.07 264.2 348.883 267.733 349.724 270.795C350.565 273.854 350.426 276.398 349.316 278.411Z" stroke="black"/>
<ellipse cx="113.119" cy="62.9256" rx="9.71642" ry="9.25373" fill="#B9FF66"/>
<circle cx="287.089" cy="261.418" r="6.01493" fill="#B9FF66"/>
<circle cx="83.0447" cy="38.8659" r="13.8806" fill="black"/>
<path d="M218.179 230.899C214.385 232.196 210.048 229.626 208.539 225.169L185.064 156.39L198.782 151.698L222.28 220.571C223.789 224.981 221.95 229.602 218.179 230.899Z" fill="black"/>
<path d="M216.129 231.747C215.022 231.747 213.89 231.488 212.806 230.946C210.614 229.861 208.87 227.833 208.022 225.334L184.547 156.555C184.452 156.296 184.594 155.989 184.877 155.895L198.594 151.203C198.735 151.156 198.877 151.156 198.995 151.226C199.112 151.297 199.207 151.391 199.254 151.533L222.752 220.406C224.331 225.075 222.352 230.003 218.321 231.394C217.638 231.63 216.884 231.747 216.129 231.747ZM185.725 156.72L209.035 225.004C209.789 227.244 211.345 229.083 213.277 230.026C214.833 230.781 216.506 230.922 218.015 230.403C221.503 229.201 223.2 224.862 221.786 220.736L198.452 152.358L185.725 156.72Z" fill="black"/>
<path d="M196.353 92.3273L151.973 123.993L134.697 141.937L127.909 153.938L127.885 154.033C126.542 156.107 127.319 160.894 129.841 165.775C132.316 170.585 135.804 173.933 138.255 174.122L138.185 174.169L151.219 175.583L175.613 171.693L227.394 153.16L291.761 164.195L292.209 164.219C276.041 161.2 254.216 139.579 238.354 108.997C222.515 78.4395 217.471 48.2352 224.424 33.3335H224.401L196.707 91.5728L196.353 92.3273Z" fill="#B9FF66"/>
<path d="M302.908 162.887C318.816 154.622 315.74 117.155 296.037 79.2015C276.335 41.2479 247.467 17.1802 231.559 25.4448C215.652 33.7094 218.728 71.1767 238.43 109.13C258.132 147.084 287 171.152 302.908 162.887Z" fill="white"/>
<path d="M295.912 165.044C288.983 165.044 280.639 161.177 271.659 153.656C259.427 143.422 247.43 127.648 237.885 109.21C223.437 81.2927 217.474 52.6682 222.706 36.2811C224.45 30.8108 227.373 26.9911 231.356 24.9397C239.275 20.8842 250.424 24.3267 262.774 34.6541C275.006 44.8873 287.003 60.6614 296.548 79.0999C311.02 107.017 316.983 135.641 311.727 152.029C309.983 157.499 307.06 161.319 303.077 163.37C300.932 164.502 298.528 165.044 295.912 165.044ZM238.568 24.3267C236.141 24.3267 233.878 24.8218 231.851 25.8829C228.104 27.7927 225.369 31.4239 223.72 36.6347C218.558 52.7861 224.497 81.1041 238.827 108.785C258.343 146.44 286.956 170.538 302.629 162.498C306.377 160.588 309.111 156.957 310.761 151.746C315.922 135.594 309.983 107.276 295.653 79.595C278.659 46.8207 254.807 24.3267 238.568 24.3267Z" fill="black"/>
<path d="M295.91 165.043C288.981 165.043 280.637 161.177 271.657 153.655C259.425 143.422 247.428 127.648 237.883 109.209C223.435 81.2921 217.472 52.6676 222.704 36.2805C224.448 30.8102 227.371 26.9905 231.354 24.9392C236.657 22.204 243.586 22.8878 251.388 26.8962C258.859 30.7395 266.944 37.5537 274.816 46.5844C275.004 46.7966 274.981 47.1267 274.769 47.3153C274.556 47.5039 274.226 47.4803 274.038 47.2681C258.058 28.9239 241.89 20.7186 231.849 25.8823C228.102 27.7922 225.368 31.4233 223.718 36.6342C218.556 52.7855 224.495 81.1035 238.826 108.785C255.795 141.536 279.671 164.053 295.886 164.053C298.314 164.053 300.577 163.558 302.604 162.497C306.351 160.587 309.085 156.956 310.735 151.745C315.897 135.594 309.957 107.276 295.627 79.5945C291.361 71.3419 286.553 63.5846 281.391 56.5345C281.226 56.2988 281.274 55.9687 281.509 55.8036C281.745 55.6386 282.075 55.6857 282.24 55.9215C287.449 63.0187 292.257 70.8232 296.57 79.1229C311.018 107.016 316.981 135.641 311.725 152.028C309.981 157.498 307.058 161.318 303.075 163.369C300.93 164.501 298.526 165.043 295.91 165.043Z" fill="black"/>
<path d="M266.813 114.573C270.499 112.659 269.79 103.986 265.23 95.2028C260.671 86.4194 253.987 80.8511 250.302 82.7657C246.616 84.6803 247.325 93.3528 251.885 102.136C256.444 110.92 263.128 116.488 266.813 114.573Z" fill="#B9FF66"/>
<path d="M265.199 115.481C261.145 115.481 255.489 110.247 251.411 102.348C248.017 95.7933 246.627 89.0498 247.876 85.1593C248.324 83.7918 249.054 82.825 250.068 82.3063C254.075 80.255 260.933 85.8431 265.694 95.0152C269.088 101.57 270.479 108.314 269.23 112.204C268.782 113.572 268.051 114.538 267.038 115.057C266.472 115.34 265.859 115.481 265.199 115.481ZM251.906 82.8958C251.411 82.8958 250.94 82.9901 250.539 83.2023C249.762 83.6031 249.196 84.3577 248.842 85.4658C247.687 89.097 249.031 95.5575 252.307 101.877C256.644 110.247 263.172 115.882 266.543 114.137C267.321 113.737 267.886 112.982 268.24 111.874C269.395 108.219 268.028 101.782 264.775 95.4632C260.957 88.1302 255.489 82.8958 251.906 82.8958Z" fill="#B9FF66"/>
<path d="M292.328 156.248C286.247 156.248 278.941 152.853 271.069 146.275C260.368 137.315 249.857 123.498 241.513 107.37C228.857 82.9423 223.648 57.8782 228.22 43.5188C229.752 38.7087 232.321 35.3606 235.833 33.545C243.894 29.4188 255.749 34.1816 268.382 46.6076C268.594 46.8198 268.594 47.1263 268.382 47.3385C268.17 47.5507 267.863 47.5507 267.651 47.3385C255.348 35.2427 243.917 30.5269 236.304 34.4646C233.052 36.1387 230.671 39.2746 229.21 43.8253C224.708 57.9253 229.894 82.6829 242.432 106.898C257.257 135.546 278.116 155.211 292.305 155.211C294.426 155.211 296.382 154.763 298.173 153.867C301.426 152.193 303.806 149.057 305.268 144.506C309.769 130.406 304.584 105.649 292.045 81.4333C288.251 74.1239 284.008 67.2625 279.436 61.0613C279.271 60.8255 279.318 60.4954 279.554 60.3304C279.789 60.1653 280.119 60.2125 280.284 60.4483C284.904 66.7202 289.17 73.6051 292.988 80.9617C305.645 105.389 310.854 130.453 306.281 144.813C304.749 149.623 302.18 152.971 298.668 154.786C296.736 155.753 294.615 156.248 292.328 156.248Z" fill="black"/>
<path d="M151.244 176.079C151.22 176.079 151.197 176.079 151.197 176.079L138.163 174.664C138.092 174.664 138.022 174.641 137.951 174.593C135.264 174.169 131.87 170.774 129.395 166.011C126.756 160.988 125.978 156.084 127.415 153.773L127.439 153.703L134.227 141.678C134.25 141.63 134.274 141.607 134.298 141.583L151.574 123.64C151.597 123.616 151.621 123.593 151.645 123.569L195.907 91.9738L223.908 33.0979C223.978 32.98 224.073 32.8857 224.214 32.8385C224.355 32.7914 224.497 32.7914 224.615 32.8621C224.874 32.98 224.992 33.2865 224.874 33.5459C217.78 48.7541 223.389 78.9819 238.803 108.738C254.241 138.542 275.76 160.611 292.329 163.653C292.588 163.7 292.777 163.936 292.753 164.219C292.73 164.478 292.494 164.667 292.235 164.69L291.787 164.667C291.763 164.667 291.74 164.667 291.716 164.667L227.467 153.656L175.803 172.141C175.779 172.141 175.732 172.165 175.709 172.165L151.315 176.055C151.291 176.079 151.267 176.079 151.244 176.079ZM138.54 173.674L151.244 175.041L175.52 171.151L227.278 152.642C227.372 152.618 227.443 152.594 227.537 152.618L285.376 162.521C269.75 155.66 251.484 135.406 237.931 109.233C224.473 83.2497 218.463 56.8652 221.763 40.1951L196.827 92.5397C196.78 92.6104 196.732 92.6811 196.662 92.7283L152.328 124.394L135.123 142.243L128.335 154.269C128.335 154.292 128.311 154.316 128.311 154.316C127.085 156.226 127.91 160.941 130.291 165.539C132.624 170.043 135.995 173.438 138.304 173.603C138.399 173.603 138.469 173.627 138.54 173.674Z" fill="black"/>
<path d="M196.424 92.1388L224.4 33.3101H224.424C217.471 48.2118 222.538 78.416 238.353 108.974C254.215 139.579 276.04 161.201 292.256 164.172L291.808 164.148L227.535 153.137L226.05 152.877C218.579 151.557 208.609 141.843 201.468 127.978C194.138 113.76 192.841 99.5896 196.094 92.8461L196.424 92.1388Z" fill="white"/>
<path d="M292.257 164.69C292.234 164.69 292.257 164.69 292.257 164.69L291.786 164.667C291.762 164.667 291.739 164.667 291.715 164.667L227.442 153.655L225.957 153.396C218.061 152.005 208.044 141.89 200.997 128.238C193.007 112.723 192.607 98.9058 195.624 92.6338L195.977 91.9265L223.954 33.1213C224.024 33.0034 224.119 32.9091 224.26 32.862C224.401 32.8148 224.543 32.8148 224.661 32.8855C224.92 33.0034 225.038 33.31 224.92 33.5693C217.826 48.7776 223.435 79.0054 238.849 108.762C254.287 138.565 275.806 160.635 292.375 163.676C292.634 163.723 292.823 163.959 292.799 164.242C292.729 164.478 292.516 164.69 292.257 164.69ZM221.715 40.1949L196.896 92.3745L196.543 93.0818C193.549 99.3066 194.422 113.218 201.917 127.742C208.822 141.135 218.556 151.038 226.146 152.359L227.63 152.618L285.351 162.521C269.725 155.66 251.459 135.406 237.907 109.233C224.449 83.2495 218.439 56.865 221.715 40.1949Z" fill="black"/>
<path d="M150.536 176.008C150.512 176.008 150.489 176.008 150.489 176.008L138.138 174.687C138.068 174.687 137.997 174.664 137.926 174.617C135.239 174.192 131.845 170.797 129.371 166.034C126.754 160.988 125.977 156.084 127.414 153.773L127.438 153.702L134.226 141.677C134.367 141.418 134.674 141.347 134.933 141.489C135.192 141.63 135.263 141.937 135.121 142.196L128.334 154.268C128.334 154.292 128.31 154.315 128.31 154.315C127.084 156.225 127.909 160.941 130.29 165.539C132.623 170.042 135.994 173.438 138.303 173.603C138.374 173.603 138.468 173.626 138.515 173.673L150.583 174.97C150.866 174.994 151.078 175.253 151.031 175.536C151.007 175.796 150.795 176.008 150.536 176.008Z" fill="black"/>
<path d="M151.36 175.489C147.353 175.206 141.744 169.524 137.666 161.672C133.353 153.349 132.34 144.742 134.979 141.677L127.932 153.938L127.885 154.032C126.542 156.107 127.319 160.894 129.841 165.775C132.316 170.585 135.804 173.933 138.255 174.121L138.185 174.169L151.36 175.489Z" fill="white"/>
<path d="M151.361 176.008C151.337 176.008 151.337 176.008 151.313 176.008C151.219 176.008 151.101 175.984 151.007 175.984L138.138 174.688C138.068 174.688 137.997 174.664 137.926 174.617C135.239 174.192 131.845 170.797 129.371 166.034C126.754 160.988 125.977 156.084 127.414 153.773L127.438 153.703L133.637 142.904C133.872 142.29 134.179 141.748 134.556 141.3C134.721 141.088 135.027 141.064 135.239 141.206C135.451 141.371 135.522 141.654 135.381 141.89L134.509 143.375C133.118 147.124 134.485 154.481 138.068 161.366C141.957 168.887 147.26 174.381 151.054 174.876L151.337 174.9C151.62 174.923 151.832 175.183 151.808 175.466C151.832 175.796 151.62 176.008 151.361 176.008ZM138.515 173.674L147.519 174.593C144.054 172.377 140.236 167.803 137.196 161.908C134.249 156.225 132.788 150.331 133.024 146.087L128.334 154.268C128.334 154.292 128.31 154.316 128.31 154.316C127.084 156.225 127.909 160.941 130.29 165.539C132.623 170.043 135.994 173.438 138.303 173.603C138.374 173.603 138.468 173.627 138.515 173.674Z" fill="black"/>
<path d="M174.742 171.787L175.779 171.575C170.17 172.754 161.308 164.265 155.062 152.217C148.675 139.909 147.473 127.624 151.998 123.993L151.409 124.583L135.028 141.606C132.341 144.624 133.331 153.278 137.668 161.648C141.84 169.712 147.756 175.465 151.786 175.442L174.742 171.787Z" fill="black"/>
<path d="M151.762 175.984C147.473 175.984 141.51 170.207 137.196 161.908C132.813 153.419 131.705 144.554 134.627 141.276L150.702 124.583C150.984 124.205 151.314 123.875 151.668 123.592C151.88 123.427 152.186 123.451 152.375 123.639C152.564 123.852 152.564 124.158 152.375 124.347L151.456 125.314C148.18 129.699 149.806 140.923 155.533 151.981C161.708 163.912 170.335 172.094 175.614 171.103L175.685 171.08C175.968 171.033 176.227 171.198 176.298 171.481C176.345 171.763 176.18 172.023 175.897 172.094C175.873 172.094 175.85 172.094 175.826 172.117L174.86 172.306H174.836L151.88 175.96C151.833 175.96 151.786 175.984 151.762 175.984ZM149.335 127.506L135.405 141.984C132.813 144.907 133.991 153.443 138.139 161.436C142.193 169.264 147.92 174.923 151.762 174.947L172.032 171.716C166.564 169.783 159.823 162.497 154.614 152.476C149.665 142.927 147.755 133.212 149.335 127.506Z" fill="black"/>
<path d="M250.304 82.7539C246.604 84.6402 247.146 93.3879 251.86 102.112C259.755 116.707 266.048 114.986 266.779 114.727C266.803 114.727 266.803 114.75 266.779 114.75L253.227 125.667C249.244 120.079 245.449 113.854 241.961 107.134C238.637 100.697 235.833 94.2839 233.617 88.0591L250.304 82.7539Z" fill="black"/>
<path d="M253.227 126.186C253.203 126.186 253.18 126.186 253.156 126.186C253.015 126.162 252.897 126.091 252.803 125.974C248.725 120.244 244.931 113.972 241.513 107.394C238.237 101.074 235.409 94.6375 233.146 88.2713C233.099 88.1298 233.099 87.9883 233.17 87.8704C233.24 87.7525 233.335 87.6582 233.476 87.6111L250.163 82.3059C250.422 82.2351 250.705 82.353 250.799 82.6124C250.894 82.8718 250.799 83.1547 250.564 83.2726C249.762 83.6734 249.173 84.4751 248.82 85.654C247.665 89.3559 249.079 95.9107 252.355 101.923C260.062 116.165 266.002 114.538 266.638 114.302C266.874 114.208 267.156 114.326 267.274 114.538C267.392 114.75 267.345 115.057 267.156 115.222L253.557 126.068C253.463 126.139 253.345 126.186 253.227 126.186ZM234.301 88.3892C236.54 94.5432 239.274 100.768 242.432 106.898C245.732 113.265 249.409 119.324 253.345 124.912L265.106 115.434C262.419 115.316 257.352 113.312 251.412 102.348C247.971 96.0051 246.557 89.3087 247.806 85.2768C247.971 84.758 248.16 84.31 248.395 83.8856L234.301 88.3892Z" fill="black"/>
<path d="M320.031 49.117C330.806 43.4566 334.973 30.167 329.339 19.434C323.705 8.70097 310.403 4.58886 299.629 10.2493C288.854 15.9098 284.686 29.1994 290.32 39.9324C295.954 50.6654 309.256 54.7775 320.031 49.117Z" fill="black"/>
<path d="M299.793 24.8211C300.83 23.4063 302.362 22.5339 304.107 22.3453C305.426 22.2038 306.652 22.4868 307.807 23.1941C308.396 23.5478 308.915 23.9958 309.41 24.5381C309.763 23.9015 310.187 23.3356 310.682 22.864C311.649 21.9209 312.804 21.3786 314.1 21.2371C315.844 21.0485 317.541 21.5672 318.861 22.7226C320.157 23.8543 320.982 25.5048 321.194 27.3676C321.406 29.2774 320.888 31.1166 319.568 33.1443C318.389 34.9599 316.598 36.8462 314.524 39.0626C313.817 39.8171 313.016 40.6659 312.191 41.5619C311.979 41.7977 311.672 41.9627 311.342 41.9863C311.012 42.0335 310.706 41.9392 310.423 41.7505C309.41 41.0432 308.443 40.383 307.595 39.8171C305.096 38.1194 302.928 36.6575 301.373 35.1485C299.628 33.4744 298.733 31.7768 298.521 29.8669C298.332 28.0042 298.78 26.2122 299.793 24.8211Z" fill="white"/>
<path d="M381.156 50.3181C389.044 42.4269 389.044 29.6327 381.156 21.7415C373.268 13.8503 360.479 13.8503 352.591 21.7415C344.703 29.6327 344.703 42.4269 352.591 50.3181C360.479 58.2093 373.268 58.2093 381.156 50.3181Z" fill="#B9FF66"/>
<path d="M366.87 56.7472C355.462 56.7472 346.152 47.4572 346.152 36.0215C346.152 24.6095 355.439 15.2959 366.87 15.2959C378.301 15.2959 387.587 24.5859 387.587 36.0215C387.587 47.4336 378.301 56.7472 366.87 56.7472ZM366.87 16.3334C356.028 16.3334 347.189 25.1518 347.189 36.0215C347.189 46.8677 356.004 55.7097 366.87 55.7097C377.711 55.7097 386.55 46.8913 386.55 36.0215C386.55 25.1754 377.735 16.3334 366.87 16.3334Z" fill="#B9FF66"/>
<path d="M372.339 38.0256C371.208 38.0256 370.218 38.5679 369.558 39.4167L362.746 36.7524C362.746 36.658 362.77 36.5873 362.77 36.493C362.77 36.3279 362.746 36.1629 362.723 35.9978L369.699 32.7676C370.336 33.4985 371.278 33.9701 372.339 33.9937C374.272 33.9937 375.874 32.4139 375.874 30.4569C375.874 28.4998 374.295 26.8965 372.339 26.8965C370.406 26.8965 368.804 28.4763 368.804 30.4333C368.804 30.5983 368.827 30.7634 368.851 30.9284L361.874 34.1587C361.238 33.4278 360.295 32.9562 359.235 32.9326C357.302 32.9326 355.699 34.5124 355.699 36.4694C355.699 38.4264 357.278 40.0298 359.235 40.0298C360.366 40.0298 361.356 39.4875 362.016 38.6386L368.827 41.303C368.827 41.3974 368.804 41.4681 368.804 41.5624C368.804 43.5194 370.383 45.1228 372.339 45.1228C374.272 45.1228 375.874 43.543 375.874 41.586C375.851 39.629 374.272 38.0492 372.339 38.0256Z" fill="black"/>
<path d="M372.606 114.365C381.855 107.942 384.179 95.2772 377.796 86.0772C371.413 76.8772 358.74 74.6259 349.49 81.0487C340.241 87.4715 337.917 100.136 344.3 109.336C350.683 118.536 363.356 120.788 372.606 114.365Z" fill="black"/>
<path d="M355.96 107.37L352.99 91.2661C352.848 90.4408 353.603 89.757 354.404 89.9692L371.963 94.9443C372.859 95.2037 373.071 96.359 372.34 96.9249L357.727 108.054C357.091 108.573 356.125 108.219 355.96 107.37Z" fill="white"/>
<path d="M360.852 180.33C372.275 174.767 377.054 161.051 371.528 149.694C366.001 138.337 352.261 133.64 340.839 139.203C329.416 144.766 324.636 158.483 330.163 169.839C335.69 181.196 349.43 185.893 360.852 180.33Z" fill="#B9FF66"/>
<path d="M350.73 183.199C348.279 183.199 345.78 182.821 343.353 181.996C337.413 180.015 332.605 175.866 329.824 170.254C327.043 164.666 326.619 158.323 328.622 152.381C332.77 140.144 346.11 133.471 358.39 137.55C364.329 139.531 369.137 143.681 371.918 149.292C374.7 154.881 375.124 161.223 373.121 167.165C369.774 176.974 360.558 183.199 350.73 183.199ZM350.965 137.409C341.561 137.409 332.747 143.351 329.565 152.735C327.656 158.417 328.056 164.477 330.72 169.806C333.383 175.158 337.979 179.143 343.659 181.029C355.396 184.92 368.147 178.554 372.107 166.859C374.016 161.176 373.615 155.116 370.952 149.788C368.289 144.435 363.693 140.45 358.013 138.564C355.679 137.763 353.299 137.409 350.965 137.409Z" fill="black"/>
<path d="M362.561 156.06C362.325 161.79 352.638 175.182 350.328 178.318C350.093 178.648 349.598 178.625 349.386 178.271C347.924 175.913 343.093 167.991 340.571 161.578C339.557 159.031 338.921 156.72 338.992 155.093C339.251 148.586 344.743 143.516 351.248 143.776C357.753 144.082 362.82 149.552 362.561 156.06Z" fill="black"/>
<path d="M354.588 159.41C356.696 157.302 356.696 153.883 354.588 151.774C352.48 149.666 349.063 149.666 346.955 151.774C344.847 153.883 344.847 157.302 346.955 159.41C349.063 161.519 352.48 161.519 354.588 159.41Z" fill="#B9FF66"/>
<defs>
<clipPath id="clip0_343_699">
<rect width="21.2836" height="21.2836" fill="white" transform="translate(210.746 257.254)"/>
</clipPath>
<clipPath id="clip1_343_699">
<rect width="42.3321" height="42.3321" fill="white" transform="translate(98.8457 188.408) rotate(45)"/>
</clipPath>
</defs>
</svg>
